<svg width="16" height="16" viewBox="0 0 16 16" fill="none" xmlns="http://www.w3.org/2000/svg">
<path fill-rule="evenodd" clip-rule="evenodd" d="M8.00067 0C5.828 0 5.55533 0.0095 4.702 0.0483333C3.85033 0.0873333 3.269 0.222167 2.76033 0.42C2.23417 0.624333 1.78783 0.897667 1.34317 1.3425C0.898167 1.78717 0.624833 2.2335 0.419833 2.7595C0.2215 3.26833 0.0865 3.84983 0.0481667 4.70117C0.01 5.5545 0 5.82733 0 8C0 10.1727 0.00966667 10.4445 0.0483333 11.2978C0.0875 12.1495 0.222333 12.7308 0.42 13.2395C0.6245 13.7657 0.897833 14.212 1.34267 14.6567C1.78717 15.1017 2.2335 15.3757 2.75933 15.58C3.26833 15.7778 3.84983 15.9127 4.70133 15.9517C5.55467 15.9905 5.82717 16 7.99967 16C10.1725 16 10.4443 15.9905 11.2977 15.9517C12.1493 15.9127 12.7313 15.7778 13.2403 15.58C13.7663 15.3757 14.212 15.1017 14.6565 14.6567C15.1015 14.212 15.3748 13.7657 15.5798 13.2397C15.7765 12.7308 15.9115 12.1493 15.9515 11.298C15.9898 10.4447 15.9998 10.1727 15.9998 8C15.9998 5.82733 15.9898 5.55467 15.9515 4.70133C15.9115 3.84967 15.7765 3.26833 15.5798 2.75967C15.3748 2.2335 15.1015 1.78717 14.6565 1.3425C14.2115 0.8975 13.7665 0.624167 13.2398 0.42C12.7298 0.222167 12.1482 0.0873333 11.2965 0.0483333C10.4432 0.0095 10.1715 0 7.99817 0H8.00067ZM7.28317 1.44145C7.49617 1.44112 7.73384 1.44145 8.00084 1.44145C10.1368 1.44145 10.39 1.44912 11.2335 1.48745C12.0135 1.52312 12.4368 1.65345 12.7188 1.76295C13.0922 1.90795 13.3583 2.08129 13.6382 2.36129C13.9182 2.64129 14.0915 2.90795 14.2368 3.28129C14.3463 3.56295 14.4768 3.98629 14.5123 4.76629C14.5507 5.60962 14.559 5.86295 14.559 7.99795C14.559 10.133 14.5507 10.3863 14.5123 11.2296C14.4767 12.0096 14.3463 12.433 14.2368 12.7146C14.0918 13.088 13.9182 13.3538 13.6382 13.6336C13.3582 13.9136 13.0923 14.087 12.7188 14.232C12.4372 14.342 12.0135 14.472 11.2335 14.5076C10.3902 14.546 10.1368 14.5543 8.00084 14.5543C5.86467 14.5543 5.6115 14.546 4.76817 14.5076C3.98817 14.4716 3.56484 14.3413 3.28267 14.2318C2.90934 14.0868 2.64267 13.9135 2.36267 13.6335C2.08267 13.3535 1.90934 13.0875 1.764 12.714C1.6545 12.4323 1.524 12.009 1.4885 11.229C1.45017 10.3856 1.4425 10.1323 1.4425 7.99595C1.4425 5.85962 1.45017 5.60762 1.4885 4.76429C1.52417 3.98429 1.6545 3.56095 1.764 3.27895C1.909 2.90562 2.08267 2.63895 2.36267 2.35895C2.64267 2.07895 2.90934 1.90562 3.28267 1.76029C3.56467 1.65029 3.98817 1.52029 4.76817 1.48445C5.50617 1.45112 5.79217 1.44112 7.28317 1.43945V1.44145ZM12.2713 2.76986C11.7413 2.76986 11.3113 3.19936 11.3113 3.72953C11.3113 4.25953 11.7413 4.68953 12.2713 4.68953C12.8013 4.68953 13.2313 4.25953 13.2313 3.72953C13.2313 3.19953 12.8013 2.76953 12.2713 2.76953V2.76986ZM8.00079 3.8916C5.73196 3.8916 3.89246 5.7311 3.89246 7.99994C3.89246 10.2688 5.73196 12.1074 8.00079 12.1074C10.2696 12.1074 12.1085 10.2688 12.1085 7.99994C12.1085 5.7311 10.2695 3.8916 8.00062 3.8916H8.00079ZM8.00065 5.33301C9.47332 5.33301 10.6673 6.52684 10.6673 7.99967C10.6673 9.47234 9.47332 10.6663 8.00065 10.6663C6.52782 10.6663 5.33398 9.47234 5.33398 7.99967C5.33398 6.52684 6.52782 5.33301 8.00065 5.33301Z" fill="white"/>
</svg>
